<?xml version="1.0" standalone="no"?>
<!DOCTYPE svg PUBLIC "-//W3C//DTD SVG 20010904//EN"
 "http://www.w3.org/TR/2001/REC-SVG-20010904/DTD/svg10.dtd">
<svg version="1.0" xmlns="http://www.w3.org/2000/svg"
 width="300.000000pt" height="300.000000pt" viewBox="0 0 300.000000 300.000000"
 preserveAspectRatio="xMidYMid meet">
<metadata>
Created by potrace 1.11, written by Peter Selinger 2001-2013
</metadata>
<g transform="translate(0.000000,300.000000) scale(0.100000,-0.100000)"
fill="#000000" stroke="none">
<path d="M1569 2465 l-54 -55 -93 0 c-105 0 -98 4 -162 -90 -25 -36 -50 -69
-56 -75 -6 -5 -18 -20 -26 -32 -8 -12 -43 -45 -79 -73 -35 -28 -71 -56 -79
-63 -9 -7 -31 -24 -51 -39 l-36 -26 -43 19 -44 20 -276 -281 c-152 -154 -281
-280 -288 -280 -6 0 -40 -13 -75 -30 -36 -17 -68 -30 -71 -30 -3 0 -27 -13
-53 -29 -98 -60 -105 -119 -38 -313 25 -71 47 -134 50 -139 4 -5 8 -17 10 -26
2 -10 25 -76 50 -148 25 -71 53 -150 61 -175 9 -25 26 -56 38 -68 49 -55 -17
-52 1248 -52 1147 0 1174 1 1205 20 38 23 63 69 103 188 16 48 45 132 65 187
20 55 44 125 55 155 10 30 30 86 44 125 55 148 27 209 -129 280 -125 57 -127
58 -181 100 -89 70 -199 159 -204 165 -3 3 -25 21 -50 40 -25 19 -49 40 -55
46 -5 6 -26 23 -47 38 -24 18 -64 74 -119 166 l-84 140 -71 0 -71 0 -84 97
c-46 53 -95 108 -109 122 -14 14 -52 59 -84 99 -32 39 -59 72 -61 72 -1 0 -26
-25 -56 -55z m84 -75 c18 -17 51 -45 73 -63 36 -27 46 -45 73 -121 17 -49 29
-91 27 -93 -2 -2 -14 13 -27 34 -13 21 -26 40 -29 43 -4 3 -20 25 -37 50 -32
47 -67 81 -103 100 -12 6 -30 19 -40 28 -18 15 -18 17 -2 33 23 24 28 23 65
-11z m-197 -30 c26 0 37 -9 77 -67 25 -38 70 -86 98 -108 60 -46 147 -131 240
-236 71 -80 73 -77 -41 -49 -25 6 -58 14 -75 17 -31 6 -60 32 -70 64 -4 11
-10 19 -14 19 -5 0 -14 12 -20 28 -9 20 -39 42 -126 87 -63 32 -112 61 -110
63 2 3 0 13 -6 24 -6 11 -12 27 -14 36 -2 9 -13 42 -24 72 -12 30 -21 56 -21
59 0 2 17 1 38 -3 20 -3 51 -6 68 -6z m662 -372 c16 -35 28 -65 26 -66 -1 -2
-32 26 -68 62 l-66 66 39 0 c38 0 40 -1 69 -62z m-1133 -65 c59 -58 129 -143
118 -143 -5 0 -13 4 -18 9 -6 5 -32 22 -60 38 -44 25 -63 29 -158 33 l-109 5
56 61 55 61 37 -11 c20 -6 56 -30 79 -53z m825 -274 c147 -17 303 -46 354 -65
21 -8 41 -13 44 -10 2 3 20 -1 39 -9 19 -8 37 -14 41 -13 10 4 336 -103 347
-113 5 -5 15 -9 22 -9 7 0 35 -9 61 -21 193 -86 201 -92 202 -144 0 -17 -16
-77 -37 -135 -20 -58 -51 -148 -68 -200 l-33 -95 -277 -3 -278 -2 17 22 c37
52 55 108 66 208 15 135 19 144 38 100 8 -19 18 -51 23 -70 4 -19 13 -53 19
-75 6 -22 14 -53 18 -69 16 -63 71 -59 83 5 9 46 31 200 31 219 0 8 7 50 16
93 14 69 14 79 1 93 -9 8 -22 12 -31 9 -16 -6 -38 -86 -38 -138 0 -79 -40
-142 -48 -76 -3 21 -15 66 -55 202 -11 39 -42 62 -70 51 -9 -3 -18 -45 -26
-127 -31 -290 -42 -329 -107 -406 l-36 -41 -164 0 c-90 0 -164 3 -164 7 0 3 6
14 14 22 8 9 21 39 31 66 31 94 57 113 101 77 12 -9 29 -32 38 -49 12 -25 23
-33 43 -33 l26 0 -7 98 c-6 91 -15 184 -31 347 -4 39 -12 76 -18 83 -5 6 -25
12 -43 12 -45 0 -40 12 -125 -320 -46 -183 -57 -207 -113 -266 l-43 -44 -217
0 c-204 0 -218 1 -211 18 39 88 44 120 45 260 0 79 4 141 9 138 4 -3 16 -27
25 -53 10 -26 21 -57 26 -68 5 -11 19 -49 31 -85 12 -36 26 -73 31 -82 11 -23
55 -23 66 0 5 9 9 126 10 259 0 188 -3 246 -13 260 -11 14 -18 16 -32 7 -18
-11 -20 -36 -22 -252 -1 -57 -18 -68 -32 -21 -4 13 -26 76 -48 139 -48 136
-76 165 -113 123 -14 -16 -15 -44 -7 -221 8 -171 7 -212 -6 -262 -16 -63 -49
-127 -75 -147 -11 -9 -120 -12 -431 -13 l-417 0 15 43 c10 30 12 58 7 97 -4
30 -7 58 -6 62 1 4 -4 37 -12 73 -8 40 -10 68 -4 71 12 7 44 -21 66 -58 21
-36 49 -36 63 0 6 15 15 35 20 44 5 10 9 25 9 33 0 8 7 15 15 15 8 0 15 -1 15
-3 0 -1 9 -65 20 -142 11 -77 20 -143 20 -147 0 -11 48 -10 54 1 5 8 -2 93
-25 301 -19 172 -22 179 -74 166 -27 -7 -54 -51 -76 -124 -7 -23 -17 -41 -23
-39 -6 2 -26 23 -45 48 -52 69 -83 82 -121 51 -21 -17 -22 -22 -12 -68 6 -27
16 -80 22 -119 6 -38 15 -93 20 -121 9 -54 -7 -145 -26 -151 -9 -3 -112 280
-135 370 -13 52 5 85 61 114 58 29 274 115 365 144 39 12 96 31 129 42 32 10
63 20 70 21 39 8 87 19 126 31 63 18 207 45 318 60 l44 6 -19 -28 c-56 -81
-58 -92 -59 -345 -1 -246 -4 -268 -44 -268 -46 0 -66 63 -74 235 -8 174 -14
199 -49 203 -32 4 -32 8 -17 -203 17 -237 18 -242 61 -287 36 -38 41 -40 84
-36 98 12 117 67 113 345 l-3 198 33 64 c18 35 39 69 45 76 23 23 82 50 122
57 52 8 316 0 425 -13z m148 -396 c-1 -5 2 -34 6 -66 8 -63 -1 -87 -35 -87
-16 0 -19 8 -19 50 0 51 22 110 40 110 6 0 9 -3 8 -7z m-1469 -562 c7 -5 10
-14 6 -20 -5 -8 -11 -9 -19 -2 -15 13 -26 4 -26 -21 0 -13 7 -18 25 -18 16 0
25 -6 25 -15 0 -23 -57 -20 -70 4 -14 27 -13 47 6 65 17 18 32 20 53 7z m171
-13 c24 -26 24 -28 4 -56 -28 -41 -84 -20 -84 32 0 18 27 46 45 46 8 0 23 -10
35 -22z m165 12 c-3 -5 -15 -10 -26 -10 -10 0 -19 -4 -19 -10 0 -5 9 -10 20
-10 11 0 20 -4 20 -10 0 -5 -9 -10 -20 -10 -13 0 -20 -7 -20 -20 0 -11 -4 -20
-10 -20 -5 0 -10 23 -10 50 l0 50 36 0 c21 0 33 -4 29 -10z m145 0 c0 -5 -9
-10 -20 -10 -11 0 -20 -4 -20 -10 0 -5 9 -10 20 -10 11 0 20 -4 20 -10 0 -5
-9 -10 -20 -10 -13 0 -20 -7 -20 -20 0 -11 -7 -20 -15 -20 -11 0 -15 12 -15
50 l0 50 35 0 c19 0 35 -4 35 -10z m150 0 c0 -5 -9 -10 -20 -10 -11 0 -20 -4
-20 -10 0 -5 7 -10 15 -10 21 0 19 -18 -2 -23 -11 -3 -7 -5 10 -6 17 -1 27 -7
27 -16 0 -11 -11 -15 -40 -15 l-40 0 0 50 0 50 35 0 c19 0 35 -4 35 -10z m160
0 c0 -5 -9 -10 -20 -10 -11 0 -20 -4 -20 -10 0 -5 7 -10 15 -10 21 0 19 -18
-2 -23 -14 -4 -12 -5 5 -6 38 -2 27 -31 -13 -31 l-35 0 0 50 0 50 35 0 c19 0
35 -4 35 -10z m249 1 c7 -5 10 -14 6 -20 -5 -9 -10 -9 -20 -1 -9 7 -16 6 -25
-4 -16 -20 -4 -36 26 -36 32 0 27 -24 -5 -28 -45 -7 -69 48 -35 82 17 18 32
20 53 7z m162 -1 c23 -13 26 -62 5 -80 -19 -15 -56 -9 -69 11 -14 22 -1 67 21
72 9 3 18 5 20 6 2 0 12 -4 23 -9z m143 -12 l7 -23 16 23 c27 38 43 28 43 -28
0 -38 -4 -50 -15 -50 -9 0 -15 10 -16 23 0 12 -3 16 -6 10 -2 -7 -11 -13 -18
-13 -7 0 -16 6 -18 13 -3 6 -6 2 -6 -10 -2 -46 -21 -21 -21 27 0 36 4 50 14
50 7 0 17 -10 20 -22z m210 16 c23 -9 20 -51 -4 -59 -11 -3 -20 -13 -20 -21 0
-8 -7 -14 -15 -14 -11 0 -15 12 -15 50 0 52 11 61 54 44z m152 -29 c3 -19 10
-38 15 -41 14 -8 10 -24 -6 -24 -8 0 -15 5 -15 10 0 6 -7 10 -15 10 -8 0 -15
-4 -15 -10 0 -5 -7 -10 -15 -10 -19 0 -19 13 0 50 9 17 13 30 10 30 -4 0 -3 5
0 10 13 22 34 9 41 -25z m143 8 l20 -28 1 28 c0 17 5 27 15 27 11 0 15 -12 15
-50 0 -55 -11 -63 -42 -28 l-19 22 -6 -22 c-10 -39 -23 -23 -23 28 0 57 9 62
39 23z m162 5 l12 -23 10 23 c6 12 14 22 19 22 11 0 10 -27 -2 -35 -5 -3 -10
-19 -10 -36 0 -19 -5 -29 -15 -29 -8 0 -15 7 -15 15 0 8 -9 30 -20 50 -16 28
-17 35 -5 35 8 0 20 -10 26 -22z"/>
<path d="M1546 1473 c-14 -36 -6 -61 24 -73 17 -7 31 -13 32 -14 1 0 5 -102 8
-226 l5 -225 25 0 c34 0 37 22 39 235 1 192 8 220 57 220 21 0 24 4 24 40 0
45 -2 46 -137 53 -56 3 -73 1 -77 -10z"/>
<path d="M658 1397 c-21 -20 -39 -49 -47 -78 -27 -97 11 -310 64 -365 43 -45
126 -45 171 0 41 42 50 268 14 366 -28 77 -58 103 -119 106 -43 2 -53 -2 -83
-29z m121 -82 c58 -107 53 -282 -8 -314 -24 -13 -43 2 -70 55 -30 58 -34 226
-7 267 25 37 63 34 85 -8z"/>
<path d="M2160 1408 c-10 -27 -30 -219 -37 -374 -5 -96 -3 -112 11 -117 34
-13 43 2 53 101 6 53 12 113 12 132 1 19 6 62 11 95 15 95 13 172 -6 179 -26
10 -34 7 -44 -16z"/>
<path d="M2617 1294 c-59 -58 -47 -128 33 -204 67 -63 81 -101 47 -125 -32
-22 -53 -19 -87 15 -25 25 -34 28 -50 20 -27 -15 -25 -34 8 -71 23 -26 38 -33
80 -37 38 -3 58 0 77 12 34 22 65 74 65 109 0 35 -35 88 -76 116 -17 12 -39
37 -49 56 -16 28 -17 36 -6 49 20 24 44 19 76 -14 36 -37 69 -37 73 1 4 33
-35 72 -86 87 -57 17 -76 15 -105 -14z"/>
<path d="M617 673 c-15 -15 -6 -43 13 -43 11 0 20 6 20 14 0 17 -24 38 -33 29z"/>
<path d="M1656 673 c-12 -12 -6 -43 9 -43 8 0 15 9 15 19 0 21 -13 34 -24 24z"/>
<path d="M2021 664 c0 -11 3 -14 6 -6 3 7 2 16 -1 19 -3 4 -6 -2 -5 -13z"/>
<path d="M400 2071 c0 -6 5 -13 10 -16 6 -3 10 1 10 9 0 9 -4 16 -10 16 -5 0
-10 -4 -10 -9z"/>
</g>
</svg>
